<svg width="17" height="17" viewBox="0 0 17 17" fill="none" xmlns="http://www.w3.org/2000/svg">
<path d="M12.2578 4.4615L11.4934 3.3155C11.116 2.74929 10.4848 2.41177 9.80496 2.41177H7.19447C6.51462 2.41177 5.88347 2.74929 5.506 3.3155L4.74159 4.4615C3.05244 4.64888 1.73535 6.08501 1.73535 7.82354V11.2059C1.73535 13.0709 3.25268 14.5882 5.1177 14.5882H11.8824C13.7474 14.5882 15.2648 13.0709 15.2648 11.2059V7.82354C15.2641 6.08569 13.9463 4.64956 12.2578 4.4615ZM13.9111 11.2059C13.9111 12.3248 13.0006 13.2353 11.8817 13.2353H5.11702C3.99814 13.2353 3.08761 12.3248 3.08761 11.2059V7.82354C3.08761 6.70466 3.99814 5.79413 5.11702 5.79413C5.34296 5.79413 5.55402 5.68111 5.67985 5.49305L6.63097 4.06645C6.75679 3.87772 6.96718 3.76538 7.19379 3.76538H9.80428C10.0309 3.76538 10.2413 3.87772 10.3671 4.06645L11.3182 5.49305C11.444 5.68111 11.6551 5.79413 11.881 5.79413C12.9999 5.79413 13.9105 6.70466 13.9105 7.82354V11.2059H13.9111ZM8.49938 6.4706C7.00708 6.4706 5.79349 7.68419 5.79349 9.17648C5.79349 10.6688 7.00708 11.8824 8.49938 11.8824C9.99167 11.8824 11.2053 10.6688 11.2053 9.17648C11.2053 7.68419 9.99167 6.4706 8.49938 6.4706ZM8.49938 10.5294C7.75323 10.5294 7.14643 9.92263 7.14643 9.17648C7.14643 8.43033 7.75323 7.82354 8.49938 7.82354C9.24552 7.82354 9.85232 8.43033 9.85232 9.17648C9.85232 9.92263 9.24552 10.5294 8.49938 10.5294ZM13.2347 7.14707C13.2347 7.52048 12.9316 7.82354 12.5582 7.82354C12.1848 7.82354 11.8817 7.52048 11.8817 7.14707C11.8817 6.77366 12.1848 6.4706 12.5582 6.4706C12.9316 6.4706 13.2347 6.77366 13.2347 7.14707Z" fill="#2191FB"/>
</svg>
