<?xml version="1.0" encoding="UTF-8" standalone="no"?> <svg xmlns="http://www.w3.org/2000/svg" xmlns:xlink="http://www.w3.org/1999/xlink" viewBox="0 0 72 72"><defs><style>.cls-1{fill:url(#linear-gradient);}.cls-2{fill:url(#linear-gradient-2);}.cls-3{fill:url(#linear-gradient-3);}.cls-4{fill:url(#linear-gradient-4);}.cls-5{fill:url(#linear-gradient-5);}.cls-6{fill:url(#radial-gradient);}</style><linearGradient id="linear-gradient" x1="55.5" y1="16.679" x2="55.5" y2="41.752" gradientUnits="userSpaceOnUse"><stop offset="0" stop-color="#fed200"/><stop offset="1" stop-color="#f59815"/></linearGradient><linearGradient id="linear-gradient-2" x1="16.5" y1="16.679" x2="16.5" y2="41.752" gradientTransform="matrix(-1, 0, 0, 1, 33, 0)" xlink:href="#linear-gradient"/><linearGradient id="linear-gradient-3" x1="36" y1="48.643" x2="36" y2="61.293" xlink:href="#linear-gradient"/><linearGradient id="linear-gradient-4" x1="36" y1="58.393" x2="36" y2="63.858" gradientUnits="userSpaceOnUse"><stop offset="0" stop-color="#6fc6fc"/><stop offset="1" stop-color="#50a7f6"/></linearGradient><linearGradient id="linear-gradient-5" x1="36" y1="8.161" x2="36" y2="53.168" xlink:href="#linear-gradient"/><radialGradient id="radial-gradient" cx="36" cy="27.951" r="10.025" gradientUnits="userSpaceOnUse"><stop offset="0" stop-color="#fff"/><stop offset="1" stop-color="#f2f1ed"/></radialGradient></defs><title>Champion</title><g id="Champion"><path class="cls-1" d="M50,42H47V38h3A10,10,0,0,0,60,28V22a2,2,0,0,0-2-2H47V16H58a6,6,0,0,1,6,6v6A14,14,0,0,1,50,42Z"/><path class="cls-2" d="M22,42h3V38H22A10,10,0,0,1,12,28V22a2,2,0,0,1,2-2H25V16H14a6,6,0,0,0-6,6v6A14,14,0,0,0,22,42Z"/><path class="cls-3" d="M50.143,61V59.071a4.5,4.5,0,0,0-4.5-4.5h0a4.5,4.5,0,0,1-4.5-4.5V43H30.857v7.071a4.5,4.5,0,0,1-4.5,4.5h0a4.5,4.5,0,0,0-4.5,4.5V61Z"/><path class="cls-4" d="M53,58H19a4,4,0,0,0-4,4h0a2,2,0,0,0,2,2H55a2,2,0,0,0,2-2h0A4,4,0,0,0,53,58Z"/><path class="cls-5" d="M36,50h0A19,19,0,0,1,17,31V16a8,8,0,0,1,8-8H47a8,8,0,0,1,8,8V31A19,19,0,0,1,36,50Z"/><path class="cls-6" d="M36,35.789l-4.3,1.822A2,2,0,0,1,28.926,35.6l.4-4.655-3.063-3.528a2,2,0,0,1,1.059-3.259L31.877,23.1l2.409-4a2,2,0,0,1,3.428,0l2.409,4,4.551,1.054a2,2,0,0,1,1.059,3.259L42.67,30.942l.4,4.655A2,2,0,0,1,40.3,37.611Z"/></g></svg>