<svg width="30" height="30" viewBox="0 0 30 30" fill="none" xmlns="http://www.w3.org/2000/svg">
<path d="M15.6499 25.85L7.29992 16.6667C6.89435 16.2059 6.66937 15.6138 6.66659 15C6.66154 14.3847 6.88755 13.79 7.29992 13.3333L15.6499 4.15001C16.0964 3.65936 16.7194 3.36616 17.3821 3.3349C18.0447 3.30365 18.6926 3.5369 19.1833 3.98335C19.6739 4.4298 19.9671 5.05287 19.9984 5.7155C20.0296 6.37812 19.7964 7.02603 19.3499 7.51668L12.5499 15L19.3499 22.4833C19.7964 22.974 20.0296 23.6219 19.9984 24.2845C19.9671 24.9472 19.6739 25.5702 19.1833 26.0167C18.6926 26.4631 18.0447 26.6964 17.3821 26.6651C16.7194 26.6339 16.0964 26.3407 15.6499 25.85Z" fill="#F8F8F8"/>
</svg>
