<svg width="30" height="30" viewBox="0 0 30 30" fill="none" xmlns="http://www.w3.org/2000/svg">
<path d="M22.0182 13.8975H10.437V16.2137H22.0182V13.8975Z" fill="#3973B7"/>
<path d="M15.0811 25.4787H3.48825C2.85013 25.4787 2.33013 24.9587 2.33013 24.3206V4.63249H25.4926V14.4013C25.972 14.1662 26.4967 14.0283 27.0479 14.0283C27.3074 14.0283 27.561 14.0608 27.8088 14.1152V3.47437C27.8088 1.55536 26.2523 0 24.3345 0H3.48825C1.5704 0 0.0138855 1.55536 0.0138855 3.47437V24.3206C0.0138855 26.2384 1.5704 27.7949 3.48825 27.7949H14.4036L15.0811 25.4787Z" fill="#3973B7"/>
<path d="M22.0182 9.26498H10.437V11.5812H22.0182V9.26498Z" fill="#3973B7"/>
<path d="M10.437 20.8462H18.655L20.9828 18.53H10.437V20.8462Z" fill="#3973B7"/>
<path d="M8.12075 13.8975H5.8045V16.2137H8.12075V13.8975Z" fill="#3973B7"/>
<path d="M8.12075 9.26498H5.8045V11.5812H8.12075V9.26498Z" fill="#3973B7"/>
<path d="M8.12075 18.53H5.8045V20.8462H8.12075V18.53Z" fill="#3973B7"/>
<path d="M29.6201 18.4535L27.8632 16.6932C27.3792 16.2056 26.5963 16.2021 26.118 16.6828L24.705 18.1049L28.2142 21.6291L29.6282 20.2058C30.1088 19.7251 30.1054 18.9399 29.6201 18.4535Z" fill="#3973B7"/>
<path d="M17.7853 24.9019C17.7077 24.9656 17.6417 25.0444 17.6115 25.1486L16.3874 29.3352C16.333 29.5171 16.3839 29.7139 16.5171 29.8483C16.6167 29.9467 16.7487 30 16.8842 30C16.9329 30 16.9827 29.9931 17.0302 29.978L21.2017 28.7481C21.299 28.7203 21.3743 28.6601 21.438 28.5882L27.1579 22.8961L23.4948 19.219L17.7853 24.9019ZM18.34 28.5107L17.8513 28.0185L18.545 25.6478L20.3192 26.0137L20.6701 27.8227L18.34 28.5107Z" fill="#3973B7"/>
</svg>
