<svg width="30" height="30" viewBox="0 0 30 30" fill="none" xmlns="http://www.w3.org/2000/svg">
<g clip-path="url(#clip0_136_522)">
<path d="M6.10352e-05 15.0003C6.10352e-05 23.2852 6.71524 30.0002 14.9998 29.9999C23.2848 30.0002 30 23.2852 30 15.0003C30.0005 6.71542 23.2848 0 14.9997 0C6.71518 0 6.10352e-05 6.71565 6.10352e-05 15.0003Z" fill="#FF6678"/>
<path d="M29.2365 19.7245L29.1524 19.6404L14.8812 5.36911C14.844 5.33184 14.7995 5.3022 14.7502 5.28157C14.7011 5.26106 14.648 5.24999 14.5938 5.24999H5.65629C5.43194 5.24999 5.25006 5.43186 5.25006 5.65622V22.7187C5.25006 22.8562 5.32289 22.9718 5.42742 23.0453C5.45455 23.0838 12.0358 29.6651 12.0743 29.6922C12.0813 29.702 12.0918 29.7081 12.0994 29.7172C13.038 29.9011 14.0072 30 14.9999 30C21.6335 30.0001 27.2569 25.6934 29.2365 19.7245Z" fill="#E86575"/>
<path d="M6.06252 6.06251H14.1875V9.71875C14.1875 9.94311 14.3694 10.125 14.5938 10.125H18.25V12.9687H19.0625V9.72027C19.0625 9.72004 19.0624 9.71975 19.0624 9.71945L19.0625 9.71869C19.0625 9.68008 19.0506 9.64522 19.0405 9.60983C19.0363 9.595 19.0373 9.57883 19.0314 9.56459C19.01 9.51262 18.9782 9.46668 18.9385 9.42807L14.8812 5.36905C14.8439 5.33185 14.7995 5.30214 14.7502 5.28151C14.7011 5.26101 14.648 5.24993 14.5938 5.24993H5.65629C5.43194 5.24993 5.25006 5.43181 5.25006 5.65616V22.7186C5.25006 22.943 5.43194 23.1249 5.65629 23.1249H13.7813V22.3125H6.06252V6.06251ZM15 6.63737L17.6741 9.31246H15V6.63737Z" fill="#F4F6F9"/>
<path d="M19.4687 14.1875C16.5566 14.1875 14.1875 16.5565 14.1875 19.4687C14.1875 22.3808 16.5566 24.7499 19.4687 24.7499C22.3809 24.7499 24.7499 22.3808 24.7499 19.4687C24.7499 16.5565 22.3809 14.1875 19.4687 14.1875ZM19.4687 23.9374C17.0047 23.9374 15 21.9328 15 19.4687C15 17.0046 17.0047 15 19.4687 15C21.9328 15 23.9375 17.0046 23.9375 19.4687C23.9375 21.9328 21.9328 23.9374 19.4687 23.9374Z" fill="#F4F6F9"/>
<path d="M21.9491 16.9883C21.7904 16.8297 21.5334 16.8297 21.3746 16.9883L19.4681 18.8943L17.5616 16.9884C17.4029 16.8297 17.1458 16.8297 16.9871 16.9884C16.8284 17.1471 16.8284 17.4044 16.9871 17.5629L18.8934 19.4687L16.9871 21.3746C16.8284 21.5331 16.8284 21.7903 16.9871 21.9491C17.0665 22.0285 17.1704 22.0681 17.2743 22.0681C17.3783 22.0681 17.4822 22.0284 17.5616 21.9491L19.4681 20.0431L21.3746 21.9491C21.454 22.0285 21.5579 22.0681 21.6618 22.0681C21.7657 22.0681 21.8697 22.0284 21.949 21.9491C22.1077 21.7904 22.1077 21.533 21.949 21.3746L20.0425 19.4687L21.9489 17.5629C22.1078 17.4044 22.1078 17.1471 21.9491 16.9883Z" fill="#F4F6F9"/>
</g>
<defs>
<clipPath id="clip0_136_522">
<rect width="30" height="30" fill="white"/>
</clipPath>
</defs>
</svg>
