<svg width="144" height="9" viewBox="0 0 144 9" fill="none" xmlns="http://www.w3.org/2000/svg">
<path d="M0 4.5C0 2.01472 2.01472 0 4.5 0H139.5C141.985 0 144 2.01472 144 4.5C144 6.98528 141.985 9 139.5 9H4.5C2.01472 9 0 6.98528 0 4.5Z" fill="#FEFEFE"/>
<path d="M0.25 4.5C0.25 2.15279 2.15279 0.25 4.5 0.25H139.5C141.847 0.25 143.75 2.15279 143.75 4.5C143.75 6.84721 141.847 8.75 139.5 8.75H4.5C2.15279 8.75 0.25 6.84721 0.25 4.5Z" stroke="#777777" stroke-opacity="0.5" stroke-width="0.5"/>
<path d="M0 4.5C0 2.01472 2.01472 0 4.5 0H99.9C102.385 0 104.4 2.01472 104.4 4.5C104.4 6.98528 102.385 9 99.9 9H4.50001C2.01473 9 0 6.98528 0 4.5Z" fill="#00ED82"/>
</svg>
