<svg width="59" height="51" viewBox="0 0 59 51" fill="none" xmlns="http://www.w3.org/2000/svg">
<path d="M45.4722 39.5138L47.6198 35.2375L52.8898 35.0322L36.5556 11.8716L8.21946 12.5683L14.5202 22.2197L12.9898 25.2672L12.868 25.5108L12.9692 25.5133C12.8104 25.5928 12.6835 25.6932 12.6185 25.8252C11.8642 27.3232 17.294 31.5795 24.7602 35.3326C32.222 39.0855 38.8833 40.9029 39.6378 39.4093C39.7045 39.2783 39.7004 39.1157 39.6751 38.9378L39.7366 39.0182L39.8603 38.7755L41.3988 35.7166L46.4847 35.2816L44.5825 39.0673C44.0646 39.0331 43.5561 39.3004 43.3105 39.7909C42.9876 40.4338 43.2438 41.2177 43.8927 41.5417C44.5444 41.8692 45.3267 41.6076 45.6487 40.9666C45.8942 40.476 45.8079 39.9101 45.4722 39.5138ZM25.279 34.301C18.654 30.9722 13.666 27.5162 14.1325 26.5876C14.5991 25.6589 20.3458 27.6079 26.9692 30.9403C33.596 34.27 38.5841 37.7215 38.1168 38.6476C37.6518 39.5728 31.9049 37.6326 25.279 34.301ZM42.3554 33.086C41.9403 31.6902 40.0003 27.5749 30.9476 23.0271C21.8842 18.4693 17.4399 19.3697 16.0702 19.8739L16.5232 18.9718C16.5232 18.9718 21.0745 16.3774 31.6236 21.6832C42.1682 26.9845 42.8077 32.1858 42.8077 32.1858L42.3554 33.086ZM42.8227 41.3174L39.0034 47.6882C41.5378 46.1939 42.2941 47.6163 42.2941 47.6163L44.9282 42.3768C43.1135 42.1995 42.8227 41.3174 42.8227 41.3174Z" fill="#E8FFF7"/>
</svg>
