<svg width="30" height="30" viewBox="0 0 30 30" fill="none" xmlns="http://www.w3.org/2000/svg">
<path d="M18.75 26.25H11.25V15.75C11.25 15.3358 11.5858 15 12 15H18C18.4142 15 18.75 15.3358 18.75 15.75V26.25Z" stroke="#F3B412" stroke-width="1.5" stroke-linecap="round" stroke-linejoin="round"/>
<path d="M25.5 26.25H18.75V22.625C18.75 22.2108 19.0858 21.875 19.5 21.875H25.5C25.9142 21.875 26.25 22.2108 26.25 22.625V25.5C26.25 25.9142 25.9142 26.25 25.5 26.25Z" stroke="#F3B412" stroke-width="1.5" stroke-linecap="round" stroke-linejoin="round"/>
<path d="M11.25 26.25V20.125C11.25 19.7108 10.9142 19.375 10.5 19.375H4.5C4.08579 19.375 3.75 19.7108 3.75 20.125V25.5C3.75 25.9142 4.08579 26.25 4.5 26.25H11.25Z" stroke="#F3B412" stroke-width="1.5" stroke-linecap="round" stroke-linejoin="round"/>
<path d="M13.507 6.39156L14.6434 3.982C14.7893 3.67266 15.2108 3.67266 15.3566 3.982L16.493 6.39156L19.0344 6.78034C19.3605 6.83023 19.4904 7.24971 19.2544 7.49036L17.4158 9.36463L17.8496 12.0125C17.9054 12.3525 17.5644 12.6119 17.2726 12.4512L15 11.2004L12.7274 12.4512C12.4356 12.6119 12.0946 12.3525 12.1503 12.0125L12.5843 9.36463L10.7456 7.49036C10.5096 7.24971 10.6395 6.83023 10.9656 6.78034L13.507 6.39156Z" stroke="#F3B412" stroke-width="1.5" stroke-linecap="round" stroke-linejoin="round"/>
</svg>
