<svg width="24" height="24" viewBox="0 0 24 24" fill="none" xmlns="http://www.w3.org/2000/svg">
<path d="M17 9.42395V7C17 4.243 14.757 2 12 2C9.243 2 7 4.243 7 7V9.42395C5.237 10.198 4 11.955 4 14V17C4 19.757 6.243 22 9 22H15C17.757 22 20 19.757 20 17V14C20 11.955 18.763 10.198 17 9.42395ZM9 7C9 5.346 10.346 4 12 4C13.654 4 15 5.346 15 7V9H9V7ZM18 17C18 18.654 16.654 20 15 20H9C7.346 20 6 18.654 6 17V14C6 12.346 7.346 11 9 11H15C16.654 11 18 12.346 18 14V17ZM13 15V16C13 16.553 12.552 17 12 17C11.448 17 11 16.553 11 16V15C11 14.447 11.448 14 12 14C12.552 14 13 14.447 13 15Z" fill="#777777"/>
</svg>
