<?xml version="1.0" standalone="no"?>
<!DOCTYPE svg PUBLIC "-//W3C//DTD SVG 20010904//EN"
 "http://www.w3.org/TR/2001/REC-SVG-20010904/DTD/svg10.dtd">
<svg version="1.0" xmlns="http://www.w3.org/2000/svg"
 width="512.000000pt" height="512.000000pt" viewBox="0 0 512.000000 512.000000"
 preserveAspectRatio="xMidYMid meet">

<g transform="translate(0.000000,512.000000) scale(0.100000,-0.100000)"
fill="#000000" stroke="none">
<path d="M2418 4930 c-26 -4 -71 -16 -100 -26 -86 -27 -2009 -845 -2048 -869
-89 -57 -159 -160 -181 -263 -42 -206 51 -403 236 -499 l73 -37 6 -161 c3 -88
8 -414 11 -725 l5 -565 -50 -18 c-66 -23 -149 -101 -185 -174 -26 -51 -30 -68
-30 -148 0 -109 19 -164 81 -240 l43 -53 -55 -314 c-61 -345 -62 -373 -16
-466 119 -243 481 -240 598 5 44 94 43 136 -16 471 l-52 301 36 44 c82 100
111 214 82 327 -31 122 -121 220 -234 257 l-52 17 0 688 0 688 22 -9 c13 -5
381 -165 818 -356 437 -191 827 -358 865 -371 198 -69 421 -70 614 -4 51 17
1032 472 1862 863 64 30 134 71 157 91 191 173 171 485 -40 629 -58 40 -2002
876 -2096 902 -67 19 -285 28 -354 15z m296 -1005 c86 -18 148 -48 192 -91 62
-62 54 -130 -23 -193 -143 -118 -491 -114 -624 6 -113 102 -48 220 152 273 89
23 208 25 303 5z"/>
<path d="M3650 2619 c-366 -171 -696 -322 -733 -336 -202 -72 -482 -72 -685 2
-37 14 -375 159 -752 324 l-685 299 -3 -291 c-3 -325 7 -413 57 -542 138 -356
614 -637 1246 -735 203 -31 515 -45 700 -31 477 36 862 160 1143 368 145 107
264 251 321 386 54 130 62 206 59 554 l-3 313 -665 -311z"/>
</g>
</svg>
