<svg width="87" height="38" viewBox="0 0 87 38" fill="none" xmlns="http://www.w3.org/2000/svg">
<g filter="url(#filter0_d_120_53)">
<path d="M6.4668 12.1365V24.6365H13.7715V26.1013H4.66016V12.1365H6.4668ZM19.9629 15.8474C22.8796 15.8474 24.3379 17.2895 24.3379 20.1736C24.3379 20.5837 24.3086 21.0232 24.25 21.4919H17.0527C17.0527 23.5883 18.2767 24.6365 20.7246 24.6365C21.89 24.6365 22.9251 24.5063 23.8301 24.2458V25.7107C22.9251 25.9711 21.8249 26.1013 20.5293 26.1013C17.0072 26.1013 15.2461 24.3533 15.2461 20.8572C15.2461 17.5173 16.8184 15.8474 19.9629 15.8474ZM17.0527 19.988H22.5996C22.5605 18.1912 21.6816 17.2927 19.9629 17.2927C18.14 17.2927 17.1699 18.1912 17.0527 19.988ZM26.2812 23.0056C26.2812 20.9028 27.668 19.8513 30.4414 19.8513C31.3333 19.8513 32.2253 19.9164 33.1172 20.0466V19.0798C33.1172 17.9014 32.196 17.3123 30.3535 17.3123C29.2988 17.3123 28.2181 17.475 27.1113 17.8005V16.3357C28.2181 16.0102 29.2988 15.8474 30.3535 15.8474C33.4004 15.8474 34.9238 16.9086 34.9238 19.031V26.1013H33.9082L33.2832 25.0857C32.2611 25.7628 31.1478 26.1013 29.9434 26.1013C27.502 26.1013 26.2812 25.0694 26.2812 23.0056ZM30.4414 21.3162C28.8724 21.3162 28.0879 21.8695 28.0879 22.9763C28.0879 24.0831 28.7064 24.6365 29.9434 24.6365C31.1934 24.6365 32.2513 24.3044 33.1172 23.6404V21.5115C32.2253 21.3813 31.3333 21.3162 30.4414 21.3162ZM37.8633 26.1013V15.8474H39.084L39.4062 17.156C40.3047 16.2836 41.3854 15.8474 42.6484 15.8474V17.3513C41.4245 17.3513 40.4316 17.7843 39.6699 18.6501V26.1013H37.8633ZM44.4648 26.1013V15.8474H45.6855L46.0078 17.156C47.056 16.2836 48.2083 15.8474 49.4648 15.8474C52.0234 15.8474 53.3027 17.1202 53.3027 19.6658V26.1013H51.4961V19.6365C51.4961 18.113 50.7376 17.3513 49.2207 17.3513C48.1855 17.3513 47.2025 17.7843 46.2715 18.6501V26.1013H44.4648ZM58.2441 15.8474V26.1013H56.4375V15.8474H58.2441ZM58.2441 12.1365V13.8455H56.4375V12.1365H58.2441ZM61.3789 26.1013V15.3494C61.3789 12.8689 62.7852 11.6287 65.5977 11.6287C66.3724 11.6287 67.1016 11.7589 67.7852 12.0193V13.4841C67.1406 13.2237 66.4082 13.0935 65.5879 13.0935C63.9863 13.0935 63.1855 13.8194 63.1855 15.2712V15.8474H66.3594V17.3123H63.1855V26.1013H61.3789ZM67.1113 15.8474H69.0742L71.9746 23.8552L74.9727 15.8474H76.8867L72.6289 26.4041C71.8737 28.266 70.7409 29.4281 69.2305 29.8904L68.5371 28.6111C69.6829 28.1098 70.5163 27.2927 71.0371 26.1599L67.1113 15.8474Z" fill="#44FFAB"/>
<path d="M6.4668 12.1365H6.7668V11.8365H6.4668V12.1365ZM6.4668 24.6365H6.1668V24.9365H6.4668V24.6365ZM13.7715 24.6365H14.0715V24.3365H13.7715V24.6365ZM13.7715 26.1013V26.4013H14.0715V26.1013H13.7715ZM4.66016 26.1013H4.36016V26.4013H4.66016V26.1013ZM4.66016 12.1365V11.8365H4.36016V12.1365H4.66016ZM6.1668 12.1365V24.6365H6.7668V12.1365H6.1668ZM6.4668 24.9365H13.7715V24.3365H6.4668V24.9365ZM13.4715 24.6365V26.1013H14.0715V24.6365H13.4715ZM13.7715 25.8013H4.66016V26.4013H13.7715V25.8013ZM4.96016 26.1013V12.1365H4.36016V26.1013H4.96016ZM4.66016 12.4365H6.4668V11.8365H4.66016V12.4365ZM24.25 21.4919V21.7919H24.5148L24.5477 21.5292L24.25 21.4919ZM17.0527 21.4919V21.1919H16.7527V21.4919H17.0527ZM23.8301 24.2458H24.1301V23.8473L23.7471 23.9575L23.8301 24.2458ZM23.8301 25.7107L23.913 25.999L24.1301 25.9365V25.7107H23.8301ZM17.0527 19.988L16.7534 19.9685L16.7325 20.288H17.0527V19.988ZM22.5996 19.988V20.288H22.9062L22.8995 19.9815L22.5996 19.988ZM19.9629 16.1474C21.3758 16.1474 22.3803 16.4966 23.0332 17.1423C23.6855 17.7873 24.0379 18.7786 24.0379 20.1736H24.6379C24.6379 18.6844 24.2611 17.5126 23.4551 16.7156C22.6497 15.9192 21.4666 15.5474 19.9629 15.5474V16.1474ZM24.0379 20.1736C24.0379 20.5696 24.0096 20.9965 23.9523 21.4547L24.5477 21.5292C24.6076 21.0499 24.6379 20.5979 24.6379 20.1736H24.0379ZM24.25 21.1919H17.0527V21.7919H24.25V21.1919ZM16.7527 21.4919C16.7527 22.5996 17.0783 23.481 17.7756 24.0782C18.464 24.6677 19.4648 24.9365 20.7246 24.9365V24.3365C19.5365 24.3365 18.7014 24.0811 18.1658 23.6225C17.6392 23.1715 17.3527 22.4807 17.3527 21.4919H16.7527ZM20.7246 24.9365C21.9117 24.9365 22.9756 24.8039 23.913 24.5341L23.7471 23.9575C22.8746 24.2086 21.8683 24.3365 20.7246 24.3365V24.9365ZM23.5301 24.2458V25.7107H24.1301V24.2458H23.5301ZM23.7471 25.4224C22.8771 25.6728 21.8065 25.8013 20.5293 25.8013V26.4013C21.8432 26.4013 22.9731 26.2695 23.913 25.999L23.7471 25.4224ZM20.5293 25.8013C18.8139 25.8013 17.5826 25.3758 16.7782 24.5774C15.9743 23.7794 15.5461 22.5584 15.5461 20.8572H14.9461C14.9461 22.652 15.3984 24.0532 16.3556 25.0032C17.3123 25.9528 18.7225 26.4013 20.5293 26.4013V25.8013ZM15.5461 20.8572C15.5461 19.2291 15.9296 18.0639 16.6437 17.3055C17.3546 16.5505 18.4416 16.1474 19.9629 16.1474V15.5474C18.3396 15.5474 17.0683 15.9793 16.2069 16.8942C15.3487 17.8057 14.9461 19.1454 14.9461 20.8572H15.5461ZM17.0527 20.288H22.5996V19.688H17.0527V20.288ZM22.8995 19.9815C22.8791 19.0396 22.6374 18.28 22.1256 17.7568C21.6115 17.2312 20.8725 16.9927 19.9629 16.9927V17.5927C20.772 17.5927 21.3319 17.8035 21.6967 18.1763C22.0637 18.5516 22.2811 19.1396 22.2997 19.9946L22.8995 19.9815ZM19.9629 16.9927C19.0047 16.9927 18.2229 17.2291 17.6643 17.7465C17.1052 18.2643 16.8151 19.0217 16.7534 19.9685L17.3521 20.0076C17.4075 19.1575 17.6611 18.5672 18.072 18.1867C18.4835 17.8055 19.0981 17.5927 19.9629 17.5927V16.9927ZM33.1172 20.0466L33.0739 20.3435L33.4172 20.3936V20.0466H33.1172ZM27.1113 17.8005H26.8113V18.2015L27.196 18.0883L27.1113 17.8005ZM27.1113 16.3357L27.0267 16.0479L26.8113 16.1112V16.3357H27.1113ZM34.9238 26.1013V26.4013H35.2238V26.1013H34.9238ZM33.9082 26.1013L33.6527 26.2585L33.7406 26.4013H33.9082V26.1013ZM33.2832 25.0857L33.5387 24.9285L33.3761 24.6643L33.1175 24.8356L33.2832 25.0857ZM33.1172 23.6404L33.2998 23.8784L33.4172 23.7884V23.6404H33.1172ZM33.1172 21.5115H33.4172V21.2521L33.1605 21.2146L33.1172 21.5115ZM26.5813 23.0056C26.5813 22.0262 26.8999 21.3359 27.5025 20.8789C28.1209 20.4101 29.0841 20.1513 30.4414 20.1513V19.5513C29.0253 19.5513 27.9084 19.8182 27.14 20.4008C26.356 20.9953 25.9812 21.8822 25.9812 23.0056H26.5813ZM30.4414 20.1513C31.3187 20.1513 32.1961 20.2153 33.0739 20.3435L33.1605 19.7498C32.2544 19.6175 31.348 19.5513 30.4414 19.5513V20.1513ZM33.4172 20.0466V19.0798H32.8172V20.0466H33.4172ZM33.4172 19.0798C33.4172 18.3978 33.1424 17.8561 32.5879 17.5014C32.0562 17.1614 31.2971 17.0123 30.3535 17.0123V17.6123C31.2524 17.6123 31.8751 17.7577 32.2646 18.0069C32.6313 18.2414 32.8172 18.5835 32.8172 19.0798H33.4172ZM30.3535 17.0123C29.2676 17.0123 28.1584 17.1799 27.0267 17.5127L27.196 18.0883C28.2778 17.7702 29.33 17.6123 30.3535 17.6123V17.0123ZM27.4113 17.8005V16.3357H26.8113V17.8005H27.4113ZM27.196 16.6235C28.2778 16.3053 29.33 16.1474 30.3535 16.1474V15.5474C29.2676 15.5474 28.1584 15.715 27.0267 16.0479L27.196 16.6235ZM30.3535 16.1474C31.8514 16.1474 32.9213 16.4099 33.6098 16.8895C34.2785 17.3553 34.6238 18.0517 34.6238 19.031H35.2238C35.2238 17.8879 34.8074 16.9925 33.9527 16.3971C33.1177 15.8155 31.9025 15.5474 30.3535 15.5474V16.1474ZM34.6238 19.031V26.1013H35.2238V19.031H34.6238ZM34.9238 25.8013H33.9082V26.4013H34.9238V25.8013ZM34.1637 25.9441L33.5387 24.9285L33.0277 25.2429L33.6527 26.2585L34.1637 25.9441ZM33.1175 24.8356C32.1436 25.4808 31.0877 25.8013 29.9434 25.8013V26.4013C31.2078 26.4013 32.3786 26.0448 33.4489 25.3358L33.1175 24.8356ZM29.9434 25.8013C28.7577 25.8013 27.9245 25.5497 27.3905 25.0983C26.8661 24.655 26.5813 23.9768 26.5813 23.0056H25.9812C25.9812 24.0982 26.3068 24.9679 27.0031 25.5565C27.6898 26.137 28.6876 26.4013 29.9434 26.4013V25.8013ZM30.4414 21.0162C29.6308 21.0162 28.9692 21.1575 28.5033 21.4861C28.0184 21.8282 27.7879 22.3426 27.7879 22.9763H28.3879C28.3879 22.5033 28.5497 22.1876 28.8492 21.9763C29.1679 21.7516 29.683 21.6162 30.4414 21.6162V21.0162ZM27.7879 22.9763C27.7879 23.5851 27.9595 24.0941 28.3517 24.445C28.7376 24.7902 29.2863 24.9365 29.9434 24.9365V24.3365C29.3634 24.3365 28.9844 24.206 28.7518 23.9979C28.5255 23.7954 28.3879 23.4743 28.3879 22.9763H27.7879ZM29.9434 24.9365C31.2493 24.9365 32.374 24.5884 33.2998 23.8784L32.9346 23.4023C32.1286 24.0205 31.1374 24.3365 29.9434 24.3365V24.9365ZM33.4172 23.6404V21.5115H32.8172V23.6404H33.4172ZM33.1605 21.2146C32.2544 21.0823 31.348 21.0162 30.4414 21.0162V21.6162C31.3187 21.6162 32.1961 21.6802 33.0739 21.8083L33.1605 21.2146ZM37.8633 26.1013H37.5633V26.4013H37.8633V26.1013ZM37.8633 15.8474V15.5474H37.5633V15.8474H37.8633ZM39.084 15.8474L39.3753 15.7757L39.3191 15.5474H39.084V15.8474ZM39.4062 17.156L39.115 17.2277L39.24 17.7356L39.6152 17.3712L39.4062 17.156ZM42.6484 15.8474H42.9484V15.5474H42.6484V15.8474ZM42.6484 17.3513V17.6513H42.9484V17.3513H42.6484ZM39.6699 18.6501L39.4447 18.452L39.3699 18.537V18.6501H39.6699ZM39.6699 26.1013V26.4013H39.9699V26.1013H39.6699ZM38.1633 26.1013V15.8474H37.5633V26.1013H38.1633ZM37.8633 16.1474H39.084V15.5474H37.8633V16.1474ZM38.7927 15.9191L39.115 17.2277L39.6975 17.0843L39.3753 15.7757L38.7927 15.9191ZM39.6152 17.3712C40.4572 16.5537 41.4627 16.1474 42.6484 16.1474V15.5474C41.3081 15.5474 40.1522 16.0135 39.1973 16.9408L39.6152 17.3712ZM42.3484 15.8474V17.3513H42.9484V15.8474H42.3484ZM42.6484 17.0513C41.3442 17.0513 40.2672 17.517 39.4447 18.452L39.8952 18.8483C40.5961 18.0515 41.5047 17.6513 42.6484 17.6513V17.0513ZM39.3699 18.6501V26.1013H39.9699V18.6501H39.3699ZM39.6699 25.8013H37.8633V26.4013H39.6699V25.8013ZM44.4648 26.1013H44.1648V26.4013H44.4648V26.1013ZM44.4648 15.8474V15.5474H44.1648V15.8474H44.4648ZM45.6855 15.8474L45.9768 15.7757L45.9206 15.5474H45.6855V15.8474ZM46.0078 17.156L45.7165 17.2277L45.8312 17.6933L46.1997 17.3866L46.0078 17.156ZM53.3027 26.1013V26.4013H53.6027V26.1013H53.3027ZM51.4961 26.1013H51.1961V26.4013H51.4961V26.1013ZM46.2715 18.6501L46.0672 18.4305L45.9715 18.5195V18.6501H46.2715ZM46.2715 26.1013V26.4013H46.5715V26.1013H46.2715ZM44.7648 26.1013V15.8474H44.1648V26.1013H44.7648ZM44.4648 16.1474H45.6855V15.5474H44.4648V16.1474ZM45.3943 15.9191L45.7165 17.2277L46.2991 17.0843L45.9768 15.7757L45.3943 15.9191ZM46.1997 17.3866C47.1989 16.5549 48.2846 16.1474 49.4648 16.1474V15.5474C48.132 15.5474 46.913 16.0123 45.8159 16.9254L46.1997 17.3866ZM49.4648 16.1474C50.6983 16.1474 51.5682 16.4541 52.1317 17.0147C52.6949 17.575 53.0027 18.4396 53.0027 19.6658H53.6027C53.6027 18.3464 53.2709 17.3018 52.5549 16.5893C51.839 15.8772 50.79 15.5474 49.4648 15.5474V16.1474ZM53.0027 19.6658V26.1013H53.6027V19.6658H53.0027ZM53.3027 25.8013H51.4961V26.4013H53.3027V25.8013ZM51.7961 26.1013V19.6365H51.1961V26.1013H51.7961ZM51.7961 19.6365C51.7961 18.8288 51.5949 18.1679 51.1398 17.7109C50.6845 17.2537 50.0257 17.0513 49.2207 17.0513V17.6513C49.9326 17.6513 50.4115 17.8298 50.7147 18.1343C51.0181 18.439 51.1961 18.9207 51.1961 19.6365H51.7961ZM49.2207 17.0513C48.0933 17.0513 47.0404 17.5253 46.0672 18.4305L46.4758 18.8698C47.3646 18.0432 48.2778 17.6513 49.2207 17.6513V17.0513ZM45.9715 18.6501V26.1013H46.5715V18.6501H45.9715ZM46.2715 25.8013H44.4648V26.4013H46.2715V25.8013ZM58.2441 15.8474H58.5441V15.5474H58.2441V15.8474ZM58.2441 26.1013V26.4013H58.5441V26.1013H58.2441ZM56.4375 26.1013H56.1375V26.4013H56.4375V26.1013ZM56.4375 15.8474V15.5474H56.1375V15.8474H56.4375ZM58.2441 12.1365H58.5441V11.8365H58.2441V12.1365ZM58.2441 13.8455V14.1455H58.5441V13.8455H58.2441ZM56.4375 13.8455H56.1375V14.1455H56.4375V13.8455ZM56.4375 12.1365V11.8365H56.1375V12.1365H56.4375ZM57.9441 15.8474V26.1013H58.5441V15.8474H57.9441ZM58.2441 25.8013H56.4375V26.4013H58.2441V25.8013ZM56.7375 26.1013V15.8474H56.1375V26.1013H56.7375ZM56.4375 16.1474H58.2441V15.5474H56.4375V16.1474ZM57.9441 12.1365V13.8455H58.5441V12.1365H57.9441ZM58.2441 13.5455H56.4375V14.1455H58.2441V13.5455ZM56.7375 13.8455V12.1365H56.1375V13.8455H56.7375ZM56.4375 12.4365H58.2441V11.8365H56.4375V12.4365ZM61.3789 26.1013H61.0789V26.4013H61.3789V26.1013ZM67.7852 12.0193H68.0852V11.8125L67.892 11.7389L67.7852 12.0193ZM67.7852 13.4841L67.6728 13.7623L68.0852 13.9289V13.4841H67.7852ZM63.1855 15.8474H62.8855V16.1474H63.1855V15.8474ZM66.3594 15.8474H66.6594V15.5474H66.3594V15.8474ZM66.3594 17.3123V17.6123H66.6594V17.3123H66.3594ZM63.1855 17.3123V17.0123H62.8855V17.3123H63.1855ZM63.1855 26.1013V26.4013H63.4855V26.1013H63.1855ZM61.6789 26.1013V15.3494H61.0789V26.1013H61.6789ZM61.6789 15.3494C61.6789 14.1658 62.0127 13.3301 62.632 12.7838C63.2586 12.2312 64.229 11.9287 65.5977 11.9287V11.3287C64.1538 11.3287 63.0148 11.6462 62.2352 12.3338C61.4483 13.0278 61.0789 14.0524 61.0789 15.3494H61.6789ZM65.5977 11.9287C66.3381 11.9287 67.0308 12.053 67.6784 12.2996L67.892 11.7389C67.1723 11.4648 66.4067 11.3287 65.5977 11.3287V11.9287ZM67.4852 12.0193V13.4841H68.0852V12.0193H67.4852ZM67.8975 13.206C67.2115 12.9288 66.4399 12.7935 65.5879 12.7935V13.3935C66.3765 13.3935 67.0698 13.5186 67.6728 13.7623L67.8975 13.206ZM65.5879 12.7935C64.7477 12.7935 64.0616 12.9833 63.5846 13.4157C63.1021 13.8531 62.8855 14.4911 62.8855 15.2712H63.4855C63.4855 14.5996 63.6694 14.1487 63.9876 13.8602C64.3114 13.5667 64.8265 13.3935 65.5879 13.3935V12.7935ZM62.8855 15.2712V15.8474H63.4855V15.2712H62.8855ZM63.1855 16.1474H66.3594V15.5474H63.1855V16.1474ZM66.0594 15.8474V17.3123H66.6594V15.8474H66.0594ZM66.3594 17.0123H63.1855V17.6123H66.3594V17.0123ZM62.8855 17.3123V26.1013H63.4855V17.3123H62.8855ZM63.1855 25.8013H61.3789V26.4013H63.1855V25.8013ZM67.1113 15.8474V15.5474H66.6761L66.831 15.9541L67.1113 15.8474ZM69.0742 15.8474L69.3563 15.7452L69.2846 15.5474H69.0742V15.8474ZM71.9746 23.8552L71.6925 23.9574L71.9699 24.7233L72.2556 23.9604L71.9746 23.8552ZM74.9727 15.8474V15.5474H74.7646L74.6917 15.7422L74.9727 15.8474ZM76.8867 15.8474L77.1649 15.9596L77.3312 15.5474H76.8867V15.8474ZM72.6289 26.4041L72.9069 26.5168L72.9071 26.5163L72.6289 26.4041ZM69.2305 29.8904L68.9667 30.0333L69.0836 30.2491L69.3183 30.1772L69.2305 29.8904ZM68.5371 28.6111L68.4169 28.3362L68.1178 28.4671L68.2734 28.754L68.5371 28.6111ZM71.0371 26.1599L71.3097 26.2852L71.3623 26.1708L71.3175 26.0532L71.0371 26.1599ZM67.1113 16.1474H69.0742V15.5474H67.1113V16.1474ZM68.7922 15.9496L71.6925 23.9574L72.2567 23.7531L69.3563 15.7452L68.7922 15.9496ZM72.2556 23.9604L75.2536 15.9526L74.6917 15.7422L71.6937 23.75L72.2556 23.9604ZM74.9727 16.1474H76.8867V15.5474H74.9727V16.1474ZM76.6085 15.7352L72.3507 26.2918L72.9071 26.5163L77.1649 15.9596L76.6085 15.7352ZM72.3509 26.2913C71.6196 28.0943 70.544 29.1746 69.1427 29.6035L69.3183 30.1772C70.9377 29.6816 72.1278 28.4377 72.9069 26.5168L72.3509 26.2913ZM69.4942 29.7474L68.8009 28.4681L68.2734 28.754L68.9667 30.0333L69.4942 29.7474ZM68.6574 28.8859C69.8703 28.3552 70.758 27.4851 71.3097 26.2852L70.7645 26.0346C70.2745 27.1003 69.4955 27.8643 68.4169 28.3362L68.6574 28.8859ZM71.3175 26.0532L67.3917 15.7407L66.831 15.9541L70.7567 26.2666L71.3175 26.0532Z" fill="#777777"/>
<mask id="path-3-inside-1_120_53" fill="white">
<path d="M79.8805 16.9293L80.7405 15.0711L82.8511 14.982L76.3096 4.91817L64.9616 5.2209L67.4849 9.41464L66.872 10.7388L66.8232 10.8447L66.8638 10.8458C66.8002 10.8803 66.7493 10.924 66.7233 10.9813C66.4212 11.6322 68.5958 13.4817 71.5858 15.1125C74.574 16.7432 77.2418 17.5329 77.5439 16.8839C77.5706 16.827 77.569 16.7563 77.5589 16.679L77.5835 16.7139L77.633 16.6085L78.2491 15.2793L80.286 15.0903L79.5242 16.7353C79.3168 16.7204 79.1131 16.8366 79.0148 17.0497C78.8854 17.3291 78.988 17.6697 79.2479 17.8105C79.5089 17.9528 79.8222 17.8391 79.9512 17.5606C80.0494 17.3474 80.0149 17.1015 79.8805 16.9293ZM71.7935 14.6642C69.1404 13.2178 67.1428 11.7161 67.3296 11.3126C67.5165 10.9091 69.8179 11.756 72.4705 13.2039C75.1243 14.6508 77.1219 16.1505 76.9348 16.5529C76.7486 16.9549 74.4471 16.1119 71.7935 14.6642ZM78.6322 14.1363C78.466 13.5298 77.6891 11.7416 74.0637 9.76547C70.434 7.78503 68.6542 8.17625 68.1056 8.39533L68.2871 8.00335C68.2871 8.00335 70.1098 6.87603 74.3344 9.18154C78.5573 11.4851 78.8134 13.7451 78.8134 13.7451L78.6322 14.1363ZM78.8194 17.713L77.2899 20.4812C78.3048 19.8319 78.6077 20.45 78.6077 20.45L79.6626 18.1733C78.9359 18.0963 78.8194 17.713 78.8194 17.713Z"/>
</mask>
<path d="M79.8805 16.9293L80.7405 15.0711L82.8511 14.982L76.3096 4.91817L64.9616 5.2209L67.4849 9.41464L66.872 10.7388L66.8232 10.8447L66.8638 10.8458C66.8002 10.8803 66.7493 10.924 66.7233 10.9813C66.4212 11.6322 68.5958 13.4817 71.5858 15.1125C74.574 16.7432 77.2418 17.5329 77.5439 16.8839C77.5706 16.827 77.569 16.7563 77.5589 16.679L77.5835 16.7139L77.633 16.6085L78.2491 15.2793L80.286 15.0903L79.5242 16.7353C79.3168 16.7204 79.1131 16.8366 79.0148 17.0497C78.8854 17.3291 78.988 17.6697 79.2479 17.8105C79.5089 17.9528 79.8222 17.8391 79.9512 17.5606C80.0494 17.3474 80.0149 17.1015 79.8805 16.9293ZM71.7935 14.6642C69.1404 13.2178 67.1428 11.7161 67.3296 11.3126C67.5165 10.9091 69.8179 11.756 72.4705 13.2039C75.1243 14.6508 77.1219 16.1505 76.9348 16.5529C76.7486 16.9549 74.4471 16.1119 71.7935 14.6642ZM78.6322 14.1363C78.466 13.5298 77.6891 11.7416 74.0637 9.76547C70.434 7.78503 68.6542 8.17625 68.1056 8.39533L68.2871 8.00335C68.2871 8.00335 70.1098 6.87603 74.3344 9.18154C78.5573 11.4851 78.8134 13.7451 78.8134 13.7451L78.6322 14.1363ZM78.8194 17.713L77.2899 20.4812C78.3048 19.8319 78.6077 20.45 78.6077 20.45L79.6626 18.1733C78.9359 18.0963 78.8194 17.713 78.8194 17.713Z" fill="#25E7AD"/>
<path d="M79.8805 16.9293L79.003 16.4505L78.7303 17.0395L79.1391 17.5632L79.8805 16.9293ZM80.7405 15.0711L80.6641 14.0456L80.1052 14.0692L79.863 14.5923L80.7405 15.0711ZM82.8511 14.982L82.9275 16.0075L84.6291 15.9356L83.6467 14.4241L82.8511 14.982ZM76.3096 4.91817L77.1052 4.36036L76.7914 3.87763L76.2474 3.89214L76.3096 4.91817ZM64.9616 5.2209L64.8994 4.19488L63.2389 4.23917L64.1459 5.74665L64.9616 5.2209ZM67.4849 9.41464L68.3624 9.89342L68.5983 9.38376L68.3006 8.8889L67.4849 9.41464ZM66.872 10.7388L65.9945 10.2601L65.9938 10.2615L66.872 10.7388ZM66.8232 10.8447L65.9451 10.3673L65.2713 11.8288L66.8362 11.8707L66.8232 10.8447ZM66.8638 10.8458L67.3356 11.762L66.8508 9.81975L66.8638 10.8458ZM66.7233 10.9813L67.6004 11.4611L67.604 11.4531L66.7233 10.9813ZM71.5858 15.1125L72.006 14.2047L72.0058 14.2046L71.5858 15.1125ZM77.5439 16.8839L76.6687 16.4001L76.6673 16.4031L77.5439 16.8839ZM77.5589 16.679L78.3315 16.0873L76.0871 12.9037L76.5952 16.7807L77.5589 16.679ZM77.5835 16.7139L76.8108 17.3056L77.7695 18.6654L78.4587 17.1978L77.5835 16.7139ZM77.633 16.6085L78.5082 17.0923L78.5103 17.0878L77.633 16.6085ZM78.2491 15.2793L78.1268 14.2569L77.601 14.3057L77.3719 14.8L78.2491 15.2793ZM80.286 15.0903L81.1634 15.5693L81.9348 13.9035L80.1636 14.0679L80.286 15.0903ZM79.5242 16.7353L79.4957 17.7593L80.1282 17.8046L80.4016 17.2143L79.5242 16.7353ZM79.0148 17.0497L79.8922 17.5287L79.8928 17.5275L79.0148 17.0497ZM79.2479 17.8105L79.6678 16.9025L79.6655 16.9012L79.2479 17.8105ZM79.9512 17.5606L80.8286 18.0395L80.8293 18.038L79.9512 17.5606ZM71.7935 14.6642L72.2137 13.7564L72.2134 13.7562L71.7935 14.6642ZM67.3296 11.3126L66.4522 10.8337L66.4522 10.8337L67.3296 11.3126ZM72.4705 13.2039L72.0501 14.1117L72.0506 14.1119L72.4705 13.2039ZM76.9348 16.5529L76.0581 16.0725L76.0574 16.0738L76.9348 16.5529ZM78.6322 14.1363L77.6984 14.3858L78.4114 16.9871L79.5097 14.6152L78.6322 14.1363ZM74.0637 9.76547L73.6435 10.6733L73.6439 10.6735L74.0637 9.76547ZM68.1056 8.39533L67.2281 7.91656L66.1262 10.2973L68.4806 9.35702L68.1056 8.39533ZM68.2871 8.00335L67.7711 7.11277L67.5316 7.26093L67.4095 7.52457L68.2871 8.00335ZM74.3344 9.18154L73.9142 10.0893L73.9143 10.0894L74.3344 9.18154ZM78.8134 13.7451L79.6908 14.2241L79.8131 13.96L79.7794 13.6624L78.8134 13.7451ZM78.8194 17.713L79.7448 17.4344L79.0648 15.1966L77.974 17.1709L78.8194 17.713ZM77.2899 20.4812L76.4444 19.9391L77.8176 21.3644L77.2899 20.4812ZM78.6077 20.45L77.747 20.8931L78.649 22.7336L79.485 20.9292L78.6077 20.45ZM79.6626 18.1733L80.5399 18.6525L81.1643 17.3049L79.7226 17.1521L79.6626 18.1733ZM80.758 17.4081L81.6181 15.5499L79.863 14.5923L79.003 16.4505L80.758 17.4081ZM80.817 16.0967L82.9275 16.0075L82.7746 13.9564L80.6641 14.0456L80.817 16.0967ZM83.6467 14.4241L77.1052 4.36036L75.5139 5.47598L82.0554 15.5398L83.6467 14.4241ZM76.2474 3.89214L64.8994 4.19488L65.0238 6.24693L76.3718 5.9442L76.2474 3.89214ZM64.1459 5.74665L66.6692 9.94039L68.3006 8.8889L65.7773 4.69516L64.1459 5.74665ZM66.6074 8.93587L65.9945 10.2601L67.7495 11.2176L68.3624 9.89342L66.6074 8.93587ZM65.9938 10.2615L65.9451 10.3673L67.7014 11.3221L67.7502 11.2162L65.9938 10.2615ZM66.8362 11.8707L66.8768 11.8718L66.8508 9.81975L66.8102 9.81866L66.8362 11.8707ZM66.3919 9.92959C66.2439 10.01 65.9923 10.1794 65.8426 10.5094L67.604 11.4531C67.5063 11.6685 67.3564 11.7506 67.3356 11.762L66.3919 9.92959ZM65.8462 10.5016C65.6635 10.8954 65.714 11.2915 65.8003 11.5667C65.8849 11.8367 66.0276 12.0756 66.1673 12.2705C66.4491 12.6638 66.8603 13.0716 67.3276 13.4688C68.2752 14.2742 69.6286 15.182 71.1657 16.0204L72.0058 14.2046C70.5529 13.4121 69.324 12.5799 68.5124 11.8901C68.1001 11.5396 67.8374 11.2611 67.703 11.0736C67.6346 10.9782 67.6336 10.953 67.6455 10.9909C67.659 11.034 67.7077 11.2299 67.6004 11.461L65.8462 10.5016ZM71.1655 16.0203C72.702 16.8587 74.1811 17.4955 75.3425 17.8403C75.9153 18.0104 76.4622 18.1252 76.921 18.1363C77.1484 18.1418 77.4097 18.1239 77.6594 18.0373C77.9134 17.9493 78.2372 17.7584 78.4205 17.3647L76.6673 16.4031C76.7751 16.1716 76.9494 16.0981 76.988 16.0847C77.0223 16.0728 77.0023 16.0869 76.8904 16.0841C76.6707 16.0788 76.3072 16.0159 75.8018 15.8659C74.8067 15.5704 73.4578 14.9969 72.006 14.2047L71.1655 16.0203ZM78.4191 17.3677C78.5819 17.021 78.5359 16.6794 78.5225 16.5773L76.5952 16.7807C76.5965 16.7905 76.5907 16.755 76.5935 16.6974C76.5965 16.636 76.61 16.5251 76.6687 16.4001L78.4191 17.3677ZM76.7862 17.2707L76.8108 17.3056L78.3562 16.1223L78.3315 16.0873L76.7862 17.2707ZM78.4587 17.1978L78.5082 17.0923L76.7578 16.1247L76.7083 16.2301L78.4587 17.1978ZM78.5103 17.0878L79.1264 15.7587L77.3719 14.8L76.7557 16.1292L78.5103 17.0878ZM78.3715 16.3018L80.4083 16.1128L80.1636 14.0679L78.1268 14.2569L78.3715 16.3018ZM79.4085 14.6113L78.6467 16.2563L80.4016 17.2143L81.1634 15.5693L79.4085 14.6113ZM79.5526 15.7113C78.9589 15.6687 78.4005 16.0004 78.1368 16.572L79.8928 17.5275C79.8257 17.6728 79.6747 17.7721 79.4957 17.7593L79.5526 15.7113ZM78.1373 16.5708C77.7959 17.3081 78.0421 18.2927 78.8303 18.7197L79.6655 16.9012C79.934 17.0467 79.9749 17.35 79.8922 17.5287L78.1373 16.5708ZM78.828 18.7184C79.6104 19.145 80.4856 18.7802 80.8286 18.0395L79.0737 17.0816C79.1587 16.898 79.4074 16.7605 79.6678 16.9025L78.828 18.7184ZM80.8293 18.038C81.0905 17.4714 81.0078 16.7899 80.6218 16.2954L79.1391 17.5632C79.022 17.4132 79.0084 17.2233 79.073 17.0831L80.8293 18.038ZM72.2134 13.7562C70.9161 13.049 69.7976 12.3379 69.0403 11.769C68.6553 11.4799 68.3989 11.2536 68.2606 11.1033C68.1869 11.0231 68.1891 11.0097 68.2125 11.0558C68.2182 11.067 68.3905 11.3954 68.2071 11.7915L66.4522 10.8337C66.222 11.3307 66.4159 11.7943 66.5054 11.9705C66.6127 12.1816 66.761 12.363 66.8898 12.503C67.1564 12.7929 67.5302 13.1081 67.9529 13.4256C68.8109 14.0701 70.0178 14.8331 71.3737 15.5722L72.2134 13.7562ZM68.2071 11.7915C68.0236 12.1878 67.6778 12.2336 67.666 12.2353C67.6178 12.2424 67.6264 12.2324 67.7297 12.2489C67.9233 12.2799 68.2436 12.3685 68.6871 12.5317C69.5596 12.8527 70.7528 13.4035 72.0501 14.1117L72.8908 12.2962C71.5356 11.5564 70.2518 10.9597 69.2637 10.5962C68.7769 10.4171 68.321 10.2792 67.9477 10.2196C67.7675 10.1908 67.5449 10.1696 67.3247 10.202C67.141 10.229 66.6824 10.3365 66.4522 10.8337L68.2071 11.7915ZM72.0506 14.1119C73.3484 14.8195 74.4672 15.5303 75.2248 16.0987C75.6098 16.3876 75.8662 16.6136 76.0044 16.7637C76.0782 16.8438 76.0758 16.857 76.0522 16.8106C76.0465 16.7993 75.8734 16.4696 76.0581 16.0725L77.8115 17.0333C78.043 16.5357 77.8484 16.071 77.7589 15.895C77.6515 15.6839 77.503 15.5027 77.3744 15.3629C77.1077 15.0734 76.734 14.7586 76.3113 14.4415C75.4533 13.7977 74.2464 13.0352 72.8904 12.2959L72.0506 14.1119ZM76.0574 16.0738C76.2414 15.6766 76.5883 15.6314 76.5989 15.6298C76.6468 15.6228 76.638 15.6327 76.5346 15.6162C76.3408 15.5854 76.0204 15.4969 75.577 15.3342C74.7045 15.0139 73.5112 14.4642 72.2137 13.7564L71.3734 15.5721C72.7294 16.3119 74.0136 16.9075 75.0018 17.2702C75.4887 17.4489 75.9444 17.5863 76.3175 17.6457C76.4976 17.6744 76.7198 17.6955 76.9396 17.6633C77.1221 17.6365 77.5816 17.5297 77.8122 17.032L76.0574 16.0738ZM79.5661 13.8868C79.3019 12.9229 78.2844 10.9292 74.4835 8.85743L73.6439 10.6735C77.0938 12.554 77.6301 14.1367 77.6984 14.3858L79.5661 13.8868ZM74.4839 8.85764C70.6798 6.78203 68.6034 7.0851 67.7307 7.43364L68.4806 9.35702C68.7049 9.26741 70.1882 8.78802 73.6435 10.6733L74.4839 8.85764ZM68.9832 8.87411L69.1646 8.48213L67.4095 7.52457L67.2281 7.91656L68.9832 8.87411ZM68.2871 8.00335C68.803 8.89393 68.8023 8.89438 68.8015 8.89483C68.8013 8.89498 68.8006 8.89542 68.8001 8.89571C68.7992 8.89628 68.7983 8.89684 68.7974 8.89738C68.7956 8.89846 68.7939 8.89947 68.7924 8.90041C68.7892 8.90229 68.7865 8.9039 68.7841 8.90524C68.7795 8.90794 68.7764 8.9096 68.775 8.91035C68.7722 8.91186 68.776 8.90972 68.7865 8.90495C68.8074 8.89545 68.8557 8.87528 68.9325 8.8527C69.0851 8.80782 69.3565 8.75162 69.7582 8.75421C70.5588 8.75939 71.9161 8.99894 73.9142 10.0893L74.7547 8.27374C72.5281 7.05863 70.8617 6.70909 69.6948 6.70154C69.1127 6.69778 68.6644 6.77932 68.3433 6.87376C68.1832 6.92084 68.056 6.97073 67.9608 7.01387C67.9132 7.03543 67.8737 7.05526 67.8421 7.07215C67.8263 7.0806 67.8125 7.08831 67.8007 7.09513C67.7948 7.09854 67.7894 7.10173 67.7844 7.10467C67.782 7.10615 67.7796 7.10756 67.7774 7.10891C67.7763 7.10958 67.7752 7.11024 67.7742 7.11089C67.7737 7.11121 67.7729 7.11168 67.7726 7.11184C67.7719 7.11231 67.7711 7.11277 68.2871 8.00335ZM73.9143 10.0894C75.9115 11.1789 76.8984 12.2179 77.3802 12.9122C77.6219 13.2606 77.7425 13.5306 77.8005 13.6903C77.8297 13.7707 77.8436 13.8248 77.8491 13.8488C77.8519 13.8608 77.8525 13.8654 77.852 13.862C77.8517 13.8604 77.8511 13.8567 77.8503 13.851C77.8499 13.8482 77.8494 13.8449 77.8489 13.841C77.8487 13.8391 77.8484 13.837 77.8482 13.8348C77.8481 13.8337 77.8479 13.8326 77.8478 13.8314C77.8477 13.8309 77.8476 13.83 77.8476 13.8297C77.8475 13.8288 77.8474 13.8279 78.8134 13.7451C79.7794 13.6624 79.7793 13.6615 79.7792 13.6606C79.7791 13.6602 79.779 13.6593 79.7789 13.6586C79.7788 13.6573 79.7786 13.656 79.7785 13.6546C79.7781 13.6519 79.7778 13.649 79.7774 13.646C79.7766 13.6399 79.7757 13.6333 79.7747 13.6261C79.7727 13.6118 79.7702 13.5952 79.767 13.5764C79.7606 13.5388 79.7516 13.4926 79.7392 13.4383C79.7142 13.3297 79.6751 13.1892 79.6143 13.0217C79.4923 12.6857 79.2849 12.2467 78.9348 11.7421C78.2328 10.7305 76.9802 9.48774 74.7545 8.27365L73.9143 10.0894ZM77.9359 13.2662L77.7548 13.6574L79.5097 14.6152L79.6908 14.2241L77.9359 13.2662ZM77.974 17.1709L76.4444 19.9391L78.1353 21.0234L79.6648 18.2551L77.974 17.1709ZM77.8176 21.3644C78.1907 21.1257 78.2185 21.2541 78.0458 21.1916C77.9726 21.1651 77.9097 21.1181 77.8615 21.066C77.8382 21.0409 77.8179 21.0142 77.7999 20.9867C77.7907 20.9728 77.7818 20.9582 77.7731 20.9428C77.7688 20.9351 77.7644 20.9271 77.7601 20.9188C77.7579 20.9147 77.7557 20.9105 77.7536 20.9062C77.7525 20.9041 77.7514 20.9019 77.7503 20.8997C77.7498 20.8986 77.7492 20.8975 77.7487 20.8964C77.7484 20.8959 77.748 20.895 77.7478 20.8947C77.7474 20.8939 77.747 20.8931 78.6077 20.45C79.4684 20.0069 79.468 20.0061 79.4676 20.0052C79.4674 20.005 79.467 20.0041 79.4667 20.0035C79.4662 20.0024 79.4656 20.0012 79.465 20.0001C79.4638 19.9977 79.4626 19.9953 79.4614 19.9929C79.4589 19.988 79.4563 19.9829 79.4535 19.9776C79.448 19.9671 79.4418 19.9557 79.435 19.9436C79.4213 19.9195 79.405 19.8922 79.3856 19.8627C79.347 19.8039 79.2951 19.7341 79.2276 19.6611C79.0908 19.5134 78.8888 19.3525 78.613 19.2527C78.0351 19.0434 77.404 19.1874 76.7621 19.5981L77.8176 21.3644ZM79.485 20.9292L80.5399 18.6525L78.7852 17.6942L77.7304 19.9708L79.485 20.9292ZM79.7226 17.1521C79.52 17.1307 79.5104 17.0803 79.574 17.1363C79.6019 17.1608 79.6343 17.1979 79.6654 17.2496C79.6805 17.2749 79.6948 17.3028 79.7081 17.3334C79.7147 17.3487 79.7211 17.3648 79.7272 17.3816C79.7303 17.39 79.7333 17.3986 79.7362 17.4074C79.7377 17.4118 79.7392 17.4162 79.7406 17.4207C79.7413 17.423 79.742 17.4252 79.7427 17.4275C79.7431 17.4286 79.7434 17.4298 79.7438 17.4309C79.744 17.4315 79.7442 17.4324 79.7443 17.4327C79.7446 17.4335 79.7448 17.4344 78.8194 17.713C77.8939 17.9916 77.8942 17.9925 77.8944 17.9934C77.8945 17.9937 77.8948 17.9945 77.895 17.9951C77.8953 17.9963 77.8957 17.9975 77.8961 17.9987C77.8968 18.001 77.8976 18.0034 77.8983 18.0059C77.8999 18.0107 77.9015 18.0157 77.9032 18.0209C77.9067 18.0311 77.9104 18.0419 77.9145 18.0531C77.9227 18.0755 77.9323 18.0999 77.9435 18.1258C77.966 18.1778 77.9951 18.2362 78.0325 18.2986C78.1081 18.4246 78.215 18.5623 78.3629 18.6923C78.6665 18.9591 79.0784 19.139 79.6026 19.1945L79.7226 17.1521Z" fill="#777777" fill-opacity="0.5" mask="url(#path-3-inside-1_120_53)"/>
</g>
<defs>
</defs>
</svg>
