<svg width="28" height="25" viewBox="0 0 28 25" fill="none" xmlns="http://www.w3.org/2000/svg">
<path d="M11.377 18.6943L12.0719 18.2931C12.3552 18.1296 12.4522 17.7674 12.2887 17.484L10.9719 15.2033C10.8622 15.0133 10.6631 14.9071 10.4585 14.9071C10.358 14.9071 10.2562 14.9326 10.1629 14.9866L9.468 15.3878C9.37254 15.4428 9.27133 15.468 9.17274 15.468C8.86335 15.468 8.57961 15.2206 8.57961 14.8748V14.0724C8.57961 13.7454 8.31446 13.4801 7.98729 13.4801H5.35365C5.02658 13.4801 4.76133 13.7453 4.76133 14.0724V14.8748C4.76133 15.2206 4.47749 15.468 4.1682 15.468C4.06961 15.468 3.9684 15.4428 3.87294 15.3878L3.17799 14.9866C3.08476 14.9327 2.98284 14.9072 2.88244 14.9071C2.67769 14.9071 2.4787 15.0133 2.369 15.2033L1.05224 17.484C0.888701 17.7674 0.985771 18.1296 1.269 18.2931L1.96395 18.6943C2.3588 18.9223 2.3588 19.4922 1.96395 19.7202L1.269 20.1214C0.98567 20.2849 0.888701 20.6472 1.05224 20.9305L2.369 23.2112C2.4787 23.4012 2.67779 23.5075 2.88244 23.5075C2.98294 23.5075 3.08476 23.4818 3.17799 23.428L3.87294 23.0268C3.9684 22.9717 4.06961 22.9466 4.1682 22.9466C4.47759 22.9466 4.76133 23.1939 4.76133 23.5397V24.3421C4.76133 24.6692 5.02648 24.9344 5.35365 24.9344H7.98719C8.31426 24.9344 8.57951 24.6693 8.57951 24.3421V23.5397C8.57951 23.1939 8.86335 22.9466 9.17264 22.9466C9.27123 22.9466 9.37244 22.9717 9.4679 23.0268L10.1628 23.428C10.2561 23.4818 10.358 23.5075 10.4584 23.5075C10.6631 23.5075 10.8621 23.4012 10.9718 23.2112L12.2886 20.9305C12.4521 20.6472 12.3551 20.2849 12.0718 20.1214L11.3769 19.7202C10.9821 19.4922 10.9821 18.9222 11.377 18.6943ZM6.67052 20.9644C5.70002 20.9644 4.91335 20.1777 4.91335 19.2073C4.91335 18.2368 5.70012 17.4501 6.67052 17.4501C7.64093 17.4501 8.42769 18.2369 8.42769 19.2073C8.42769 20.1777 7.64093 20.9644 6.67052 20.9644Z" fill="#3526DB"/>
<path d="M10.9201 2.3898C10.6023 2.07222 10.0875 2.07222 9.76971 2.3898C9.45204 2.70758 9.45204 3.22253 9.76971 3.5402L11.2232 4.99364C5.88093 5.25818 1.55648 9.45444 1.0885 14.7417L1.2087 14.5334C1.55274 13.9375 2.19416 13.5673 2.88244 13.5674C2.89699 13.5674 2.91143 13.5687 2.92598 13.5691C3.84254 9.75889 7.16486 6.87707 11.1901 6.62677L9.76971 8.04707C9.45204 8.36475 9.45204 8.8798 9.76971 9.19747C9.9286 9.35626 10.1367 9.43566 10.3449 9.43566C10.553 9.43566 10.7612 9.35626 10.92 9.19747L13.7487 6.36879C13.9012 6.21616 13.9869 6.00929 13.9869 5.79364C13.9869 5.57788 13.9012 5.37101 13.7487 5.21848L10.9201 2.3898Z" fill="#3526DB"/>
<path d="M21.1988 6.55121C23.005 6.55121 24.4744 5.08182 24.4744 3.27566C24.4744 1.46939 23.005 0 21.1988 0C19.3926 0 17.9232 1.46939 17.9232 3.27556C17.9232 5.08172 19.3926 6.55121 21.1988 6.55121Z" fill="#3526DB"/>
<path d="M27.5797 15.3814V10.8784C27.5797 9.63192 26.7787 8.52657 25.5942 8.13859L25.5887 8.13677L23.8562 7.8499C23.7087 7.80454 23.5511 7.88263 23.4981 8.02808L21.5322 13.4219C21.4188 13.7331 20.9787 13.7331 20.8654 13.4219L18.8995 8.02808C18.8567 7.91061 18.7458 7.83697 18.627 7.83697C18.5988 7.83697 16.8089 8.13636 16.8089 8.13636C15.6147 8.53434 14.8167 9.64141 14.8167 10.8933V15.3814C14.8167 16.054 15.3619 16.5992 16.0345 16.5992H26.3618C27.0346 16.5992 27.5797 16.0539 27.5797 15.3814Z" fill="#3526DB"/>
<path d="M21.9127 7.78838C21.8373 7.70615 21.7269 7.66474 21.6151 7.66474H20.7823C20.6707 7.66474 20.5603 7.70615 20.4847 7.78838C20.3679 7.91575 20.3509 8.09969 20.4338 8.24343L20.879 8.91454L20.6706 10.6726L21.081 11.7643C21.121 11.8741 21.2763 11.8741 21.3164 11.7643L21.7268 10.6726L21.5184 8.91454L21.9635 8.24343C22.0466 8.09969 22.0296 7.91575 21.9127 7.78838Z" fill="#3526DB"/>
</svg>
