<svg width="300" height="400" viewBox="0 0 300 400" fill="none" xmlns="http://www.w3.org/2000/svg">
<g clip-path="url(#clip0_466_13)">
<path fill-rule="evenodd" clip-rule="evenodd" d="M120.692 239.783L246.9 219.387L300 335.896L234.333 335.192L180.375 376.273L120.692 239.783Z" fill="#D0401B"/>
<path fill-rule="evenodd" clip-rule="evenodd" d="M193.283 226.855L57.975 230.218L0 359.631L65.6667 358.919L119.625 400L193.283 226.855Z" fill="#FF6600"/>
<path fill-rule="evenodd" clip-rule="evenodd" d="M152.675 0.0234859C160.467 -0.289332 166.608 2.26013 172.8 5.9592C180.667 10.6358 189.517 19.8796 200.442 25.7449C215.817 33.9877 244.283 22.6167 258.867 42.9421C267.375 54.7979 267.775 64.0885 268.408 73.2697C269.092 83.1782 270.942 92.2891 281.742 105.701C299.633 127.896 303.358 142.668 294.142 158.067C287.858 168.562 274.633 174.396 271.567 181.043C265.058 195.19 272.258 205.85 263.342 222.343C257.15 233.776 247.6 241.315 234.875 245.163C224.142 248.401 213.375 243.716 204.792 247.103C189.692 253.054 178.558 266.888 166.55 270.384C161.908 271.737 157.292 272.402 152.675 272.37C148.067 272.402 143.442 271.737 138.808 270.384C126.792 266.888 115.658 253.054 100.558 247.103C91.975 243.716 81.2084 248.401 70.475 245.163C57.7584 241.315 48.2 233.776 42.0084 222.343C33.0917 205.85 40.2917 195.19 33.7834 181.043C30.7167 174.396 17.4917 168.562 11.2084 158.067C1.99169 142.668 5.72502 127.896 23.6084 105.701C34.4084 92.2891 36.2584 83.1782 36.9417 73.2697C37.575 64.0885 37.975 54.7979 46.4834 42.9421C61.0667 22.6167 89.5334 33.9877 104.908 25.7449C115.842 19.8796 124.683 10.6358 132.55 5.9592C138.75 2.26013 144.892 -0.289332 152.675 0.0234859V0.0234859Z" fill="#F5C800"/>
<path fill-rule="evenodd" clip-rule="evenodd" d="M152.675 0.0312522C160.467 -0.289386 166.6 2.2679 172.8 5.95915C180.667 10.6358 189.517 19.8795 200.442 25.7449C212.667 32.2984 233.175 26.4565 248.392 34.0033L76.625 246.266C74.5833 246.109 72.525 245.781 70.475 245.163C57.75 241.315 48.2 233.784 42.0083 222.343C33.0917 205.85 40.2917 195.19 33.7834 181.043C30.7167 174.396 17.4917 168.562 11.2083 158.067C1.99168 142.668 5.72501 127.895 23.6 105.701C34.4083 92.2968 36.2584 83.1782 36.9417 73.2697C37.575 64.0885 37.975 54.7978 46.475 42.942C61.0667 22.6089 89.5417 33.9876 104.908 25.7449C115.842 19.8795 124.692 10.6358 132.55 5.95915C138.75 2.2679 144.892 -0.289386 152.675 0.0312522Z" fill="#FFDD61"/>
<path d="M152.258 239.986C212.108 239.986 260.625 194.455 260.625 138.289C260.625 82.1232 212.108 36.5919 152.258 36.5919C92.4091 36.5919 43.8917 82.1232 43.8917 138.289C43.8917 194.455 92.4091 239.986 152.258 239.986Z" fill="#E37E00"/>
<path d="M152.258 219.582C200.1 219.582 238.883 183.186 238.883 138.289C238.883 93.3917 200.1 56.9954 152.258 56.9954C104.417 56.9954 65.6333 93.3917 65.6333 138.289C65.6333 183.186 104.417 219.582 152.258 219.582Z" fill="white"/>
<path fill-rule="evenodd" clip-rule="evenodd" d="M152.258 56.9954C175.158 56.9954 196 65.3398 211.483 78.963L105.283 206.593C101.433 204.262 97.7916 201.642 94.3916 198.78C76.7416 183.905 65.6333 162.313 65.6333 138.289C65.6333 93.3917 104.417 56.9954 152.258 56.9954V56.9954Z" fill="#EDEDED"/>
</g>
<defs>
<clipPath id="clip0_466_13">
<rect width="300" height="400" fill="white"/>
</clipPath>
</defs>
</svg>
