<svg width="62" height="35" viewBox="0 0 62 35" fill="none" xmlns="http://www.w3.org/2000/svg">
<path d="M4.59922 9.20671C4.48389 9.67948 4.01336 10.0346 3.45181 10.0346C3.3021 10.0346 3.18073 10.1433 3.18073 10.2776C3.18073 10.4118 3.3021 10.5206 3.45181 10.5206C4.31112 10.5206 5.0249 9.95175 5.14938 9.21215C5.6755 9.16116 6.16118 8.95103 6.53715 8.60706C6.64193 8.5112 6.64016 8.35734 6.53321 8.26346C6.4263 8.1696 6.25465 8.17109 6.14986 8.26695C5.81737 8.57117 5.37265 8.73869 4.8976 8.73869C3.93098 8.73869 3.14459 8.03382 3.14459 7.16742C3.14459 7.0332 3.02321 6.92444 2.8735 6.92444C2.72379 6.92444 2.60242 7.0332 2.60242 7.16742C2.60242 8.2111 3.47419 9.07511 4.59922 9.20671Z" fill="#FFCB14"/>
<path d="M5.747 11.3143C5.747 11.18 5.62562 11.0713 5.47591 11.0713C4.21034 11.0713 3.18073 11.9942 3.18073 13.1285C3.18073 13.1403 3.1812 13.152 3.18142 13.1638C3.08061 13.1516 2.97796 13.1447 2.8735 13.1447C2.72379 13.1447 2.60242 13.2535 2.60242 13.3877C2.60242 13.5219 2.72379 13.6307 2.8735 13.6307C3.84012 13.6307 4.62651 14.3356 4.62651 15.202C4.62651 15.3362 4.74789 15.4449 4.8976 15.4449C5.04731 15.4449 5.16868 15.3362 5.16868 15.202C5.16868 14.3398 4.57367 13.6003 3.73262 13.2948C3.72619 13.2398 3.7229 13.1841 3.7229 13.1285C3.7229 12.2621 4.5093 11.5573 5.47591 11.5573C5.62562 11.5573 5.747 11.4485 5.747 11.3143Z" fill="#FFCB14"/>
<path d="M15 9.24082C15 8.68763 14.7535 8.16341 14.3178 7.77788C14.3868 7.58 14.4217 7.37531 14.4217 7.16739C14.4217 6.16715 13.621 5.33178 12.5641 5.14809C12.6449 4.9676 12.6867 4.77413 12.6867 4.57559C12.6867 3.942 12.2572 3.39675 11.6456 3.16109C10.6265 2.43357 9.51188 2 8.65663 2C8.18122 2 7.75963 2.20955 7.5 2.5308C7.24037 2.20955 6.81878 2 6.34337 2C5.48812 2 4.37353 2.43357 3.35443 3.16109C2.74276 3.39675 2.31325 3.942 2.31325 4.57559C2.31325 4.77413 2.35514 4.9676 2.43593 5.14809C1.37899 5.33178 0.578313 6.16715 0.578313 7.16739C0.578313 7.37531 0.613193 7.57997 0.682229 7.77788C0.246506 8.16341 0 8.68763 0 9.24082C0 9.67326 0.149964 10.0748 0.405289 10.4063C0.139952 10.7501 0 11.1512 0 11.5734C0 12.3214 0.454952 13.0068 1.17528 13.3681C1.16288 13.4605 1.15663 13.5538 1.15663 13.6469C1.15663 14.6559 1.8909 15.5479 2.95626 15.8519C3.41967 16.5628 4.2638 17 5.18675 17C6.19861 17 7.07599 16.4758 7.5 15.7147C7.92401 16.4758 8.80139 17 9.81325 17C10.7362 17 11.5803 16.5628 12.0437 15.8519C13.1091 15.5479 13.8434 14.6558 13.8434 13.6469C13.8434 13.5538 13.8371 13.4605 13.8247 13.3681C14.545 13.0068 15 12.3214 15 11.5734C15 11.1512 14.86 10.7501 14.5947 10.4063C14.85 10.0748 15 9.67326 15 9.24082ZM5.18675 16.514C4.42666 16.514 3.73406 16.1384 3.37919 15.5338C3.34402 15.4739 3.28265 15.4299 3.20975 15.4123C2.32012 15.1977 1.6988 14.4717 1.6988 13.6469C1.6988 13.5234 1.71267 13.3998 1.74004 13.2794C1.76541 13.1677 1.70075 13.0552 1.58454 13.0088C0.951325 12.7565 0.542169 12.1931 0.542169 11.5734C0.542169 11.2916 0.623711 11.0222 0.779313 10.7836C1.18399 11.1034 1.71455 11.2981 2.29518 11.2981C2.44489 11.2981 2.56626 11.1893 2.56626 11.0551C2.56626 10.9209 2.44489 10.8121 2.29518 10.8121C1.32857 10.8121 0.542169 10.1072 0.542169 9.24082C0.542169 8.77443 0.771759 8.33486 1.1721 8.03496C1.26246 7.96725 1.29372 7.85499 1.24945 7.75718C1.16386 7.56811 1.12048 7.36968 1.12048 7.16739C1.12048 6.30098 1.90688 5.59611 2.87349 5.59611C3.84011 5.59611 4.62651 6.30098 4.62651 7.16739C4.62651 7.30161 4.74788 7.41037 4.89759 7.41037C5.0473 7.41037 5.16867 7.30161 5.16867 7.16739C5.16867 6.07747 4.218 5.18327 3.02093 5.11485C2.91242 4.95228 2.85542 4.76742 2.85542 4.57559C2.85542 4.14247 3.14877 3.76971 3.56667 3.60824C3.58283 3.60393 3.59866 3.59829 3.61395 3.59117C3.74342 3.54704 3.88363 3.52268 4.03012 3.52268C4.48399 3.52268 4.88917 3.75014 5.08757 4.11636C5.15299 4.23711 5.3152 4.28745 5.44984 4.22878C5.58452 4.17017 5.64069 4.02481 5.57526 3.90409C5.34878 3.48607 4.92014 3.18562 4.42652 3.07919C5.1184 2.70079 5.79954 2.48596 6.34337 2.48596C6.83165 2.48596 7.22892 2.84201 7.22892 3.2797V6.4239C6.98534 6.2507 6.67771 6.14687 6.34337 6.14687C6.19366 6.14687 6.07229 6.25563 6.07229 6.38985C6.07229 6.52407 6.19366 6.63283 6.34337 6.63283C6.83165 6.63283 7.22892 6.98888 7.22892 7.42657V13.2671C6.89187 12.8774 6.41671 12.5832 5.85777 12.4486C5.71323 12.4139 5.56449 12.4906 5.52564 12.6202C5.48678 12.7498 5.57252 12.8831 5.7171 12.9179C6.60723 13.1323 7.22892 13.8583 7.22892 14.6836C7.22892 15.6929 6.31279 16.514 5.18675 16.514ZM13.4155 13.0089C13.2993 13.0552 13.2346 13.1677 13.26 13.2794C13.2873 13.3998 13.3012 13.5235 13.3012 13.6469C13.3012 14.4718 12.6799 15.1977 11.7903 15.4123C11.7173 15.4299 11.6559 15.474 11.6208 15.5339C11.2659 16.1384 10.5733 16.514 9.81325 16.514C8.6872 16.514 7.77108 15.6929 7.77108 14.6836C7.77108 14.6153 7.76754 14.5475 7.76093 14.4804C7.76736 14.4597 7.77108 14.4379 7.77108 14.4152V6.38985C7.77108 5.95216 8.16835 5.59611 8.65663 5.59611C8.80634 5.59611 8.92771 5.48735 8.92771 5.35313C8.92771 5.21891 8.80634 5.11015 8.65663 5.11015C8.32229 5.11015 8.01466 5.21398 7.77108 5.38718V3.2797C7.77108 2.84201 8.16835 2.48596 8.65663 2.48596C9.20046 2.48596 9.8816 2.70079 10.5735 3.07919C10.0799 3.18558 9.65122 3.48607 9.42473 3.90409C9.35931 4.02484 9.41548 4.17021 9.55016 4.22878C9.68483 4.28742 9.84701 4.23711 9.91243 4.11636C10.1108 3.75014 10.516 3.52268 10.9699 3.52268C11.1164 3.52268 11.2566 3.54704 11.386 3.59117C11.4013 3.59829 11.4171 3.6039 11.4332 3.60821C11.8512 3.76968 12.1446 4.14244 12.1446 4.57559C12.1446 4.76742 12.0876 4.95228 11.9791 5.11485C10.782 5.18327 9.83132 6.07747 9.83132 7.16739C9.83132 7.30161 9.9527 7.41037 10.1024 7.41037C10.2521 7.41037 10.3735 7.30161 10.3735 7.16739C10.3735 6.30098 11.1599 5.59611 12.1265 5.59611C13.0931 5.59611 13.8795 6.30098 13.8795 7.16739C13.8795 7.36968 13.8361 7.56811 13.7506 7.75718C13.7063 7.85502 13.7376 7.96725 13.8279 8.03496C14.2282 8.33486 14.4578 8.77443 14.4578 9.24082C14.4578 10.1072 13.6714 10.8121 12.7048 10.8121C12.5551 10.8121 12.4337 10.9209 12.4337 11.0551C12.4337 11.1893 12.5551 11.2981 12.7048 11.2981C13.2854 11.2981 13.816 11.1034 14.2207 10.7836C14.3763 11.0222 14.4578 11.2916 14.4578 11.5734C14.4578 12.1931 14.0487 12.7565 13.4155 13.0089Z" fill="#FFCB14"/>
<path d="M12.1265 9.77538C11.565 9.77538 11.0944 9.42027 10.9791 8.9475C12.1041 8.8159 12.9759 7.95189 12.9759 6.9082C12.9759 6.77398 12.8545 6.66522 12.7048 6.66522C12.5551 6.66522 12.4337 6.77398 12.4337 6.9082C12.4337 7.77461 11.6473 8.47948 10.6807 8.47948C10.2057 8.47948 9.76094 8.31195 9.42845 8.00774C9.3237 7.91191 9.15205 7.91032 9.0451 8.00424C8.93815 8.09816 8.93638 8.25199 9.04116 8.34785C9.41714 8.69182 9.90281 8.90195 10.4289 8.95294C10.5534 9.69254 11.2672 10.2613 12.1265 10.2613C12.2762 10.2613 12.3976 10.1526 12.3976 10.0184C12.3976 9.88414 12.2762 9.77538 12.1265 9.77538Z" fill="#FFCB14"/>
<path d="M11.259 12.6264C11.1546 12.6264 11.0519 12.6332 10.9511 12.6454C10.9513 12.6336 10.9518 12.6219 10.9518 12.6102C10.9518 11.4758 9.92218 10.5529 8.65661 10.5529C8.5069 10.5529 8.38553 10.6617 8.38553 10.7959C8.38553 10.9301 8.5069 11.0389 8.65661 11.0389C9.62323 11.0389 10.4096 11.7437 10.4096 12.6102C10.4096 12.6657 10.4063 12.7214 10.3999 12.7764C9.55885 13.082 8.96384 13.8215 8.96384 14.6836C8.96384 14.8178 9.08522 14.9266 9.23493 14.9266C9.38464 14.9266 9.50601 14.8178 9.50601 14.6836C9.50601 13.8172 10.2924 13.1123 11.259 13.1123C11.4087 13.1123 11.5301 13.0036 11.5301 12.8693C11.5301 12.7351 11.4087 12.6264 11.259 12.6264Z" fill="#FFCB14"/>
<path d="M26.5191 1.87109V9H25.2251V3.37988L23.5113 3.94629V2.90137L26.3726 1.87109H26.5191ZM30.1909 5.72852L29.1607 5.47949L29.5562 1.89062H33.4673V2.95996H30.6255L30.44 4.62012C30.5409 4.55827 30.6874 4.49642 30.8794 4.43457C31.0747 4.36947 31.2945 4.33691 31.5386 4.33691C31.8771 4.33691 32.1799 4.39225 32.4468 4.50293C32.7137 4.61035 32.94 4.7666 33.1255 4.97168C33.3143 5.17676 33.4559 5.42741 33.5503 5.72363C33.648 6.0166 33.6968 6.34863 33.6968 6.71973C33.6968 7.04525 33.648 7.35124 33.5503 7.6377C33.4559 7.9209 33.3111 8.17318 33.1157 8.39453C32.9204 8.61263 32.6747 8.78516 32.3784 8.91211C32.0822 9.03581 31.7339 9.09766 31.3335 9.09766C31.0308 9.09766 30.7394 9.05371 30.4595 8.96582C30.1828 8.87467 29.9338 8.74284 29.7124 8.57031C29.4911 8.39453 29.3137 8.17969 29.1802 7.92578C29.05 7.67188 28.9784 7.38053 28.9654 7.05176H30.2398C30.2626 7.26986 30.3212 7.4554 30.4156 7.6084C30.51 7.76139 30.6337 7.87858 30.7866 7.95996C30.9429 8.04134 31.1236 8.08203 31.3286 8.08203C31.5142 8.08203 31.6737 8.04785 31.8072 7.97949C31.9439 7.90788 32.0562 7.80859 32.1441 7.68164C32.232 7.55469 32.2971 7.40495 32.3394 7.23242C32.3817 7.0599 32.4029 6.87109 32.4029 6.66602C32.4029 6.46745 32.3784 6.28678 32.3296 6.12402C32.2808 5.95801 32.2059 5.81478 32.105 5.69434C32.0041 5.57389 31.8771 5.48112 31.7241 5.41602C31.5744 5.35091 31.3986 5.31836 31.1968 5.31836C30.9266 5.31836 30.7183 5.35905 30.5718 5.44043C30.4286 5.52181 30.3016 5.61784 30.1909 5.72852ZM39.3316 4.83496V6.03125C39.3316 6.57812 39.2762 7.04525 39.1656 7.43262C39.0549 7.81999 38.8954 8.13737 38.687 8.38477C38.4787 8.62891 38.2297 8.80957 37.94 8.92676C37.6503 9.04069 37.328 9.09766 36.9732 9.09766C36.69 9.09766 36.4263 9.06185 36.1822 8.99023C35.938 8.91536 35.7183 8.80143 35.523 8.64844C35.3309 8.49219 35.1649 8.29362 35.0249 8.05273C34.8882 7.81185 34.7824 7.52376 34.7075 7.18848C34.6359 6.85319 34.6001 6.46745 34.6001 6.03125V4.83496C34.6001 4.28809 34.6555 3.82259 34.7661 3.43848C34.8801 3.05436 35.0412 2.74023 35.2495 2.49609C35.4579 2.25195 35.7069 2.07454 35.9966 1.96387C36.2863 1.84993 36.6086 1.79297 36.9634 1.79297C37.2499 1.79297 37.5135 1.82878 37.7544 1.90039C37.9986 1.97201 38.2167 2.08431 38.4087 2.2373C38.604 2.38704 38.77 2.58236 38.9068 2.82324C39.0435 3.06087 39.1476 3.34733 39.2193 3.68262C39.2941 4.01465 39.3316 4.39876 39.3316 4.83496ZM38.0425 6.20703V4.6543C38.0425 4.38086 38.0262 4.14323 37.9937 3.94141C37.9644 3.73633 37.9204 3.56217 37.8618 3.41895C37.8032 3.27572 37.73 3.16016 37.6421 3.07227C37.5542 2.98112 37.4533 2.91439 37.3394 2.87207C37.2254 2.82975 37.1001 2.80859 36.9634 2.80859C36.7941 2.80859 36.6428 2.84277 36.5093 2.91113C36.3758 2.97624 36.2635 3.0804 36.1724 3.22363C36.0812 3.36686 36.0113 3.55729 35.9624 3.79492C35.9169 4.0293 35.8941 4.31576 35.8941 4.6543V6.20703C35.8941 6.48047 35.9087 6.71973 35.938 6.9248C35.9706 7.12988 36.0161 7.30566 36.0747 7.45215C36.1366 7.59863 36.2098 7.71908 36.2945 7.81348C36.3823 7.90462 36.4833 7.97298 36.5972 8.01855C36.7111 8.06087 36.8365 8.08203 36.9732 8.08203C37.1457 8.08203 37.2971 8.04785 37.4273 7.97949C37.5607 7.91113 37.673 7.80371 37.7642 7.65723C37.8553 7.50749 37.9237 7.3138 37.9693 7.07617C38.0181 6.83529 38.0425 6.54557 38.0425 6.20703ZM45.7183 5.83105H43.9019L43.8921 4.88379H45.4497C45.7167 4.88379 45.9396 4.84635 46.1187 4.77148C46.2977 4.69661 46.4328 4.58757 46.524 4.44434C46.6184 4.30111 46.6656 4.12695 46.6656 3.92188C46.6656 3.69401 46.6216 3.50846 46.5337 3.36523C46.4491 3.22201 46.3156 3.11784 46.1333 3.05273C45.951 2.98438 45.7199 2.9502 45.44 2.9502H44.3365V9H42.9937V1.89062H45.44C45.8436 1.89062 46.2033 1.92969 46.5191 2.00781C46.8381 2.08268 47.1083 2.19987 47.3296 2.35938C47.551 2.51888 47.7186 2.71908 47.8325 2.95996C47.9497 3.20085 48.0083 3.4873 48.0083 3.81934C48.0083 4.1123 47.94 4.38249 47.8032 4.62988C47.6698 4.87402 47.4631 5.07259 47.1831 5.22559C46.9064 5.37858 46.5549 5.46647 46.1284 5.48926L45.7183 5.83105ZM45.6597 9H43.5064L44.0679 7.94531H45.6597C45.9266 7.94531 46.1463 7.90137 46.3189 7.81348C46.4947 7.72559 46.6249 7.60514 46.7095 7.45215C46.7974 7.2959 46.8413 7.11686 46.8413 6.91504C46.8413 6.69368 46.8023 6.50163 46.7241 6.33887C46.6493 6.17611 46.5288 6.05078 46.3628 5.96289C46.2001 5.875 45.9852 5.83105 45.7183 5.83105H44.3218L44.3316 4.88379H46.1089L46.4165 5.25C46.8267 5.25326 47.1603 5.33464 47.4175 5.49414C47.6779 5.65365 47.87 5.85872 47.9937 6.10938C48.1174 6.36003 48.1792 6.63021 48.1792 6.91992C48.1792 7.37565 48.0799 7.75814 47.8814 8.06738C47.6861 8.37663 47.3996 8.60938 47.022 8.76562C46.6476 8.92188 46.1935 9 45.6597 9ZM52.0757 6.40723H50.2447V5.35254H52.0757C52.3752 5.35254 52.6177 5.30371 52.8032 5.20605C52.992 5.10514 53.1304 4.96842 53.2183 4.7959C53.3062 4.62012 53.3501 4.41992 53.3501 4.19531C53.3501 3.97721 53.3062 3.77376 53.2183 3.58496C53.1304 3.39616 52.992 3.24316 52.8032 3.12598C52.6177 3.00879 52.3752 2.9502 52.0757 2.9502H50.6841V9H49.3413V1.89062H52.0757C52.6291 1.89062 53.1011 1.98991 53.4917 2.18848C53.8856 2.38379 54.1851 2.6556 54.3902 3.00391C54.5985 3.34896 54.7027 3.74284 54.7027 4.18555C54.7027 4.64453 54.5985 5.04004 54.3902 5.37207C54.1851 5.7041 53.8856 5.95964 53.4917 6.13867C53.1011 6.31771 52.6291 6.40723 52.0757 6.40723Z" fill="#00ED82"/>
<path d="M19 16C19 13.7909 20.7909 12 23 12H57.3529C59.5621 12 61.3529 13.7909 61.3529 16V16C61.3529 18.2091 59.5621 20 57.3529 20H23C20.7909 20 19 18.2091 19 16V16Z" fill="#FEFEFE"/>
<path d="M23 12.25H57.3529C59.424 12.25 61.1029 13.9289 61.1029 16C61.1029 18.0711 59.424 19.75 57.3529 19.75H23C20.9289 19.75 19.25 18.0711 19.25 16C19.25 13.9289 20.9289 12.25 23 12.25Z" stroke="#777777" stroke-opacity="0.5" stroke-width="0.5"/>
<path d="M19 16C19 13.7909 20.7909 12 23 12H45.7059C47.915 12 49.7059 13.7909 49.7059 16V16C49.7059 18.2091 47.915 20 45.7059 20H23C20.7909 20 19 18.2091 19 16V16Z" fill="#00ED82"/>
<path d="M23 12.05H45.7059C47.8874 12.05 49.6559 13.8185 49.6559 16C49.6559 18.1815 47.8874 19.95 45.7059 19.95H23C20.8185 19.95 19.05 18.1815 19.05 16C19.05 13.8185 20.8185 12.05 23 12.05Z" stroke="black" stroke-opacity="0.5" stroke-width="0.1"/>
<path d="M18.2941 29.2083C18.2941 26.9992 20.085 25.2083 22.2941 25.2083H56.6471C58.8562 25.2083 60.6471 26.9992 60.6471 29.2083V29.2083C60.6471 31.4175 58.8562 33.2083 56.6471 33.2083H22.2941C20.085 33.2083 18.2941 31.4175 18.2941 29.2083V29.2083Z" fill="white"/>
<path d="M22.2941 25.4583H56.6471C58.7181 25.4583 60.3971 27.1373 60.3971 29.2083C60.3971 31.2794 58.7181 32.9583 56.6471 32.9583H22.2941C20.2231 32.9583 18.5441 31.2794 18.5441 29.2083C18.5441 27.1373 20.2231 25.4583 22.2941 25.4583Z" stroke="#777777" stroke-opacity="0.5" stroke-width="0.5"/>
<path d="M18.2941 29.2083C18.2941 26.9992 20.085 25.2083 22.2941 25.2083H30.1765C32.3856 25.2083 34.1765 26.9992 34.1765 29.2083V29.2083C34.1765 31.4175 32.3856 33.2083 30.1765 33.2083H22.2941C20.085 33.2083 18.2941 31.4175 18.2941 29.2083V29.2083Z" fill="#FFCB14"/>
<path d="M22.2941 25.2583H30.1765C32.358 25.2583 34.1265 27.0268 34.1265 29.2083C34.1265 31.3899 32.358 33.1583 30.1765 33.1583H22.2941C20.1126 33.1583 18.3441 31.3899 18.3441 29.2083C18.3441 27.0268 20.1126 25.2583 22.2941 25.2583Z" stroke="black" stroke-opacity="0.5" stroke-width="0.1"/>
<path d="M7.5 20V29.0982H15L7.5 20Z" fill="#FFCD00"/>
<path d="M0 25.9018L7.5 35V25.9018H0Z" fill="#FFDA44"/>
</svg>
