<svg width="16" height="20" viewBox="0 0 16 20" fill="none" xmlns="http://www.w3.org/2000/svg">
<path d="M8 11C11.033 11 13.5 8.532 13.5 5.5C13.5 2.468 11.033 0 8 0C4.967 0 2.5 2.468 2.5 5.5C2.5 8.532 4.967 11 8 11ZM8 2C9.93 2 11.5 3.57 11.5 5.5C11.5 7.43 9.93 9 8 9C6.07 9 4.5 7.43 4.5 5.5C4.5 3.57 6.07 2 8 2ZM16 15.967V16.978C16 17.974 15.636 18.929 14.975 19.667C14.777 19.888 14.504 20 14.229 20C13.992 20 13.753 19.916 13.562 19.745C13.15 19.377 13.116 18.744 13.484 18.333C13.816 17.962 13.999 17.48 13.999 16.978V15.967C13.999 14.568 13.072 13.358 11.746 13.025C11.554 12.977 11.349 13.001 11.185 13.095C9.204 14.197 6.78597 14.191 4.82397 13.101C4.65097 13.002 4.447 12.977 4.255 13.025C2.926 13.358 2 14.568 2 15.967V16.978C2 17.481 2.18301 17.962 2.51501 18.333C2.88301 18.744 2.84801 19.377 2.43701 19.745C2.02501 20.114 1.39302 20.078 1.02502 19.667C0.364024 18.929 0 17.974 0 16.978V15.967C0 13.65 1.54903 11.642 3.76703 11.085C4.45403 10.91 5.19803 11.011 5.80603 11.358C7.15503 12.106 8.83598 12.1121 10.204 11.3521C10.803 11.0091 11.547 10.909 12.235 11.084C14.451 11.642 16 13.649 16 15.967Z" fill="#777777"/>
</svg>
